<svg width="34" height="39" viewBox="0 0 34 39" fill="none" xmlns="http://www.w3.org/2000/svg">
<mask id="mask0_85_410" style="mask-type:luminance" maskUnits="userSpaceOnUse" x="1" y="1" width="32" height="37">
<path d="M32.3951 19.5014C32.3951 21.8101 31.9936 24.0962 31.2136 26.2291C30.4337 28.3621 29.2905 30.3001 27.8493 31.9326C26.4081 33.5651 24.6971 34.8601 22.8141 35.7436C20.9311 36.6271 18.9129 37.0818 16.8748 37.0818C14.8366 37.0818 12.8184 36.6271 10.9354 35.7436C9.05241 34.8601 7.34147 33.5651 5.90028 31.9326C4.45909 30.3001 3.31587 28.3621 2.5359 26.2291C1.75594 24.0962 1.35449 21.8101 1.35449 19.5014C1.35449 14.8387 2.98966 10.3671 5.90028 7.0701C8.8109 3.77312 12.7585 1.9209 16.8748 1.9209C20.991 1.9209 24.9387 3.77312 27.8493 7.0701C30.7599 10.3671 32.3951 14.8387 32.3951 19.5014Z" fill="white"/>
</mask>
<g mask="url(#mask0_85_410)">
<path d="M1.3623 37.0781V25.3594H32.3987V37.0781H1.3623Z" fill="#27AE60"/>
<path d="M1.3623 25.3594V13.6406H32.3987V25.3594H1.3623Z" fill="white"/>
<path d="M1.3623 13.6406V1.92188H32.3987V13.6406H1.3623Z" fill="#F39C12"/>
<path d="M16.8749 24.6299C19.3737 24.6299 21.3994 22.3353 21.3994 19.5048C21.3994 16.6742 19.3737 14.3796 16.8749 14.3796C14.376 14.3796 12.3503 16.6742 12.3503 19.5048C12.3503 22.3353 14.376 24.6299 16.8749 24.6299Z" fill="#000088"/>
<path d="M16.875 23.9892C19.0615 23.9892 20.8339 21.9815 20.8339 19.5047C20.8339 17.028 19.0615 15.0203 16.875 15.0203C14.6885 15.0203 12.916 17.028 12.916 19.5047C12.916 21.9815 14.6885 23.9892 16.875 23.9892Z" fill="white"/>
<path d="M16.8748 20.4017C17.3121 20.4017 17.6666 20.0001 17.6666 19.5048C17.6666 19.0095 17.3121 18.6079 16.8748 18.6079C16.4375 18.6079 16.083 19.0095 16.083 19.5048C16.083 20.0001 16.4375 20.4017 16.8748 20.4017Z" fill="#000088"/>
<path d="M20.7755 20.3126C20.8838 20.3288 20.9833 20.2424 20.9976 20.1197C21.012 19.9969 20.9357 19.8842 20.8273 19.868C20.719 19.8518 20.6195 19.9381 20.6052 20.0609C20.5908 20.1837 20.6671 20.2964 20.7755 20.3126Z" fill="#000088"/>
<path d="M16.875 23.9893L17.0107 21.2986L16.875 20.0173L16.7393 21.2986L16.875 23.9893Z" fill="#000088"/>
<path d="M20.4624 21.4244C20.5656 21.4745 20.6814 21.4246 20.7211 21.3128C20.7609 21.201 20.7094 21.0698 20.6063 21.0197C20.5031 20.9696 20.3872 21.0196 20.3475 21.1313C20.3078 21.2431 20.3592 21.3743 20.4624 21.4244Z" fill="#000088"/>
<path d="M15.8611 23.8328L16.6033 21.2835L16.7464 20.0042L16.3184 21.195L15.8611 23.8328Z" fill="#000088"/>
<path d="M19.8992 22.4085C19.988 22.4864 20.1123 22.4718 20.1768 22.376C20.2413 22.2802 20.2217 22.1394 20.1329 22.0616C20.0441 21.9838 19.9199 21.9983 19.8553 22.0941C19.7908 22.1899 19.8105 22.3307 19.8992 22.4085Z" fill="#000088"/>
<path d="M14.9012 23.3831L16.2041 21.1408L16.6412 19.9527L15.9558 20.9777L14.9012 23.3831Z" fill="#000088"/>
<path d="M19.1279 23.2005C19.1944 23.2988 19.3186 23.3174 19.4054 23.2421C19.4922 23.1668 19.5086 23.026 19.4422 22.9277C19.3757 22.8294 19.2514 22.8108 19.1647 22.8861C19.0779 22.9614 19.0614 23.1022 19.1279 23.2005Z" fill="#000088"/>
<path d="M14.0751 22.675L15.8509 20.8815L16.5549 19.867L15.659 20.6641L14.0751 22.675Z" fill="#000088"/>
<path d="M18.2038 23.7389C18.2433 23.8508 18.3591 23.9011 18.4623 23.8512C18.5656 23.8013 18.6172 23.6702 18.5777 23.5583C18.5382 23.4464 18.4224 23.3962 18.3191 23.446C18.2159 23.4959 18.1642 23.6271 18.2038 23.7389Z" fill="#000088"/>
<path d="M13.4427 21.7537L15.5691 20.5247L16.4873 19.7535L15.4412 20.2727L13.4427 21.7537Z" fill="#000088"/>
<path d="M17.1902 23.9878C17.2019 24.1075 17.3013 24.1891 17.4122 24.17C17.5232 24.1508 17.6037 24.0383 17.5921 23.9185C17.5805 23.7987 17.4811 23.7172 17.3701 23.7363C17.2591 23.7554 17.1786 23.868 17.1902 23.9878Z" fill="#000088"/>
<path d="M13.0465 20.6768L15.3777 20.101L16.4413 19.6253L15.3146 19.828L13.0465 20.6768Z" fill="#000088"/>
<path d="M16.1619 23.923C16.1476 24.0458 16.2238 24.1585 16.3322 24.1747C16.4406 24.1909 16.5401 24.1046 16.5544 23.9818C16.5687 23.859 16.4925 23.7464 16.3841 23.7301C16.2757 23.7139 16.1762 23.8003 16.1619 23.923Z" fill="#000088"/>
<path d="M12.9161 19.5048L15.2915 19.6586L16.4226 19.5048L15.2915 19.3511L12.9161 19.5048Z" fill="#000088"/>
<path d="M15.1722 23.5582C15.1325 23.6699 15.1839 23.8011 15.2871 23.8512C15.3902 23.9013 15.506 23.8514 15.5457 23.7397C15.5855 23.6279 15.5341 23.4967 15.4309 23.4466C15.3278 23.3965 15.2119 23.4465 15.1722 23.5582Z" fill="#000088"/>
<path d="M13.0474 18.3314L15.3149 19.1809L16.4413 19.384L15.3781 18.908L13.0474 18.3314Z" fill="#000088"/>
<path d="M14.3017 22.925C14.2372 23.0208 14.2568 23.1616 14.3456 23.2394C14.4344 23.3173 14.5586 23.3027 14.6232 23.2069C14.6877 23.1111 14.668 22.9703 14.5793 22.8925C14.4905 22.8147 14.3662 22.8292 14.3017 22.925Z" fill="#000088"/>
<path d="M13.4408 17.2577L15.4393 18.7387L16.4854 19.2579L15.5672 18.4866L13.4408 17.2577Z" fill="#000088"/>
<path d="M13.6112 22.0573C13.5244 22.1326 13.508 22.2734 13.5745 22.3717C13.6411 22.47 13.7653 22.4887 13.8521 22.4133C13.9389 22.3379 13.9553 22.1972 13.8888 22.0988C13.8223 22.0005 13.698 21.9819 13.6112 22.0573Z" fill="#000088"/>
<path d="M14.0742 16.3316L15.6583 18.3435L16.5544 19.141L15.8503 18.126L14.0742 16.3316Z" fill="#000088"/>
<path d="M13.1442 21.0186C13.0409 21.0685 12.9892 21.1997 13.0288 21.3116C13.0683 21.4235 13.1841 21.4737 13.2874 21.4238C13.3906 21.3739 13.4423 21.2428 13.4028 21.1309C13.3632 21.019 13.2474 20.9688 13.1442 21.0186Z" fill="#000088"/>
<path d="M14.9021 15.6251L15.9567 18.0308L16.6422 19.0559L16.205 17.8676L14.9021 15.6251Z" fill="#000088"/>
<path d="M12.9268 19.8727C12.8159 19.8918 12.7353 20.0044 12.747 20.1242C12.7586 20.2439 12.858 20.3255 12.969 20.3064C13.08 20.2872 13.1605 20.1746 13.1489 20.0549C13.1372 19.9351 13.0378 19.8536 12.9268 19.8727Z" fill="#000088"/>
<path d="M15.8623 15.1765L16.319 17.8143L16.7467 19.0051L16.6039 17.7259L15.8623 15.1765Z" fill="#000088"/>
<path d="M12.9745 18.6969C12.8662 18.6807 12.7667 18.7671 12.7524 18.8898C12.738 19.0126 12.8143 19.1253 12.9227 19.1415C13.031 19.1577 13.1305 19.0714 13.1448 18.9486C13.1592 18.8258 13.0829 18.7132 12.9745 18.6969Z" fill="#000088"/>
<path d="M16.875 15.0202L16.7393 17.7109L16.875 18.9922L17.0107 17.7109L16.875 15.0202Z" fill="#000088"/>
<path d="M13.2874 17.5851C13.1842 17.535 13.0684 17.585 13.0286 17.6967C12.9889 17.8085 13.0403 17.9397 13.1435 17.9898C13.2467 18.0399 13.3625 17.99 13.4023 17.8782C13.442 17.7664 13.3906 17.6352 13.2874 17.5851Z" fill="#000088"/>
<path d="M17.8887 15.1767L17.1465 17.726L17.0033 19.0053L17.4314 17.8145L17.8887 15.1767Z" fill="#000088"/>
<path d="M13.8496 16.6012C13.7608 16.5234 13.6365 16.538 13.572 16.6338C13.5075 16.7296 13.5271 16.8703 13.6159 16.9482C13.7047 17.026 13.8289 17.0114 13.8934 16.9156C13.958 16.8198 13.9383 16.6791 13.8496 16.6012Z" fill="#000088"/>
<path d="M18.8476 15.6267L17.5447 17.8689L17.1076 19.0571L17.793 18.0321L18.8476 15.6267Z" fill="#000088"/>
<path d="M14.6208 15.8089C14.5543 15.7106 14.43 15.692 14.3433 15.7674C14.2565 15.8427 14.24 15.9835 14.3066 16.0818C14.3731 16.1801 14.4973 16.1987 14.5841 16.1233C14.6709 16.048 14.6873 15.9072 14.6208 15.8089Z" fill="#000088"/>
<path d="M19.6746 16.3333L17.8987 18.1274L17.1948 19.1422L18.0907 18.3449L19.6746 16.3333Z" fill="#000088"/>
<path d="M15.5463 15.2696C15.5067 15.1577 15.391 15.1074 15.2877 15.1573C15.1844 15.2072 15.1328 15.3384 15.1723 15.4502C15.2118 15.5621 15.3276 15.6124 15.4309 15.5625C15.5342 15.5126 15.5858 15.3815 15.5463 15.2696Z" fill="#000088"/>
<path d="M20.3077 17.2553L18.181 18.4843L17.2627 19.2555L18.3089 18.7364L20.3077 17.2553Z" fill="#000088"/>
<path d="M16.5595 15.0218C16.5479 14.902 16.4485 14.8204 16.3375 14.8396C16.2265 14.8587 16.146 14.9713 16.1576 15.091C16.1693 15.2108 16.2687 15.2924 16.3796 15.2732C16.4906 15.2541 16.5712 15.1415 16.5595 15.0218Z" fill="#000088"/>
<path d="M20.7033 18.3327L18.372 18.9086L17.3085 19.3843L18.4352 19.1816L20.7033 18.3327Z" fill="#000088"/>
<path d="M17.5881 15.0865C17.6024 14.9637 17.5262 14.851 17.4178 14.8348C17.3094 14.8186 17.2099 14.9049 17.1956 15.0277C17.1813 15.1505 17.2575 15.2632 17.3659 15.2794C17.4743 15.2956 17.5738 15.2092 17.5881 15.0865Z" fill="#000088"/>
<path d="M20.8339 19.5047L18.4585 19.3509L17.3274 19.5047L18.4585 19.6584L20.8339 19.5047Z" fill="#000088"/>
<path d="M18.5789 15.4502C18.6187 15.3384 18.5673 15.2072 18.4641 15.157C18.3609 15.1069 18.245 15.1568 18.2053 15.2686C18.1655 15.3804 18.2169 15.5116 18.3201 15.5617C18.4233 15.6119 18.5392 15.562 18.5789 15.4502Z" fill="#000088"/>
<path d="M20.7033 20.6791L18.4353 19.8289L17.3085 19.6255L18.372 20.1018L20.7033 20.6791Z" fill="#000088"/>
<path d="M19.4466 16.0862C19.5112 15.9904 19.4915 15.8496 19.4027 15.7717C19.3139 15.6939 19.1897 15.7085 19.1251 15.8043C19.0606 15.9001 19.0803 16.0409 19.1691 16.1187C19.2578 16.1966 19.3821 16.182 19.4466 16.0862Z" fill="#000088"/>
<path d="M20.3079 21.7541L18.3091 20.273L17.2629 19.7538L18.1812 20.5251L20.3079 21.7541Z" fill="#000088"/>
<path d="M20.1388 16.9516C20.2256 16.8763 20.242 16.7355 20.1755 16.6371C20.109 16.5388 19.9847 16.5202 19.8979 16.5955C19.8111 16.6709 19.7946 16.8116 19.8611 16.91C19.9277 17.0083 20.0519 17.0269 20.1388 16.9516Z" fill="#000088"/>
<path d="M19.6747 22.6774L18.0909 20.6651L17.1949 19.8673L17.8988 20.8825L19.6747 22.6774Z" fill="#000088"/>
<path d="M20.6051 17.9877C20.7083 17.9378 20.76 17.8066 20.7205 17.6948C20.6809 17.5829 20.5651 17.5326 20.4619 17.5825C20.3586 17.6324 20.307 17.7635 20.3465 17.8754C20.386 17.9873 20.5018 18.0375 20.6051 17.9877Z" fill="#000088"/>
<path d="M18.8476 23.3806L17.793 20.9752L17.1075 19.9502L17.5447 21.1383L18.8476 23.3806Z" fill="#000088"/>
<path d="M20.8229 19.1368C20.9339 19.1177 21.0144 19.0051 21.0028 18.8854C20.9911 18.7656 20.8917 18.684 20.7808 18.7032C20.6698 18.7223 20.5893 18.8349 20.6009 18.9546C20.6125 19.0744 20.7119 19.156 20.8229 19.1368Z" fill="#000088"/>
<path d="M17.8875 23.833L17.4308 21.1952L17.003 20.0044L17.1459 21.2836L17.8875 23.833Z" fill="#000088"/>
</g>
</svg>
