<svg width="74" height="70" viewBox="0 0 74 70" fill="none" xmlns="http://www.w3.org/2000/svg">
<g clip-path="url(#clip0_222_90)">
<path d="M17.8492 8.03363C23.4487 4.4645 30.0436 2.55298 36.7991 2.55298C41.2836 2.55298 45.7217 3.39572 49.8589 5.03049C53.996 6.66521 57.7476 9.05836 60.9024 12.0679C64.057 15.0771 66.5527 18.6432 68.2531 22.5593C69.9534 26.475 70.8267 30.6675 70.8267 34.8983C70.8267 41.2686 68.8471 47.5063 65.1231 52.8231C61.3979 58.1414 56.0905 62.3038 49.8589 64.7661C43.6266 67.2288 36.7624 67.8747 30.139 66.6179C23.516 65.3612 17.4477 62.2618 12.6958 57.7287C7.94516 53.1969 4.72428 47.4375 3.42073 41.186C2.11739 34.9354 2.78511 28.4551 5.34515 22.5593C7.90588 16.6619 12.2509 11.6021 17.8492 8.03363ZM26.9936 23.108V46.6886C26.9936 50.3504 31.134 52.4791 34.112 50.3484L50.5914 38.5581C53.1002 36.7631 53.1002 33.0335 50.5914 31.2385L34.112 19.4482C31.134 17.3176 26.9936 19.4462 26.9936 23.108Z" fill="white" stroke="white" stroke-width="5"/>
</g>
<defs>
<clipPath id="clip0_222_90">
<rect width="73.8889" height="70" fill="white" transform="translate(0.074707)"/>
</clipPath>
</defs>
</svg>
